<?xml version="1.0" encoding="UTF-8" standalone="no"?>
<svg viewBox="0 0 32 32">
    <path
        d="m 8.457292,6.5721453 c -0.5204306,-0.5204306 -1.3647161,-0.5204306 -1.8851467,0 v 0 c -0.5204306,0.5204306 -0.5204306,1.3647161 0,1.8851467 v 0 L 23.542708,25.427855 c 0.520431,0.52043 1.364716,0.52043 1.885147,0 v 0 c 0.52043,-0.520431 0.52043,-1.364716 0,-1.885147 v 0 z"
        id="path2" />
    <path
        d="m 6.5721453,23.542708 c -0.5204306,0.52043 -0.5204306,1.364716 0,1.885147 v 0 c 0.5204306,0.52043 1.3647161,0.52043 1.8851467,0 v 0 L 25.427855,8.4572919 c 0.52043,-0.520431 0.52043,-1.3647161 0,-1.885147 v 0 c -0.520431,-0.5204301 -1.364716,-0.5204301 -1.885147,0 v 0 z"
        id="path829" />
</svg>