<svg xmlns="http://www.w3.org/2000/svg" xmlns:xlink="http://www.w3.org/1999/xlink">
    <symbol id="arrow-end" viewBox="0 0 512 512">
        <path
            d="m 84.319837,353.3715 45.256003,45.256 142.627,-142.628 -142.628,-142.627 -45.254003,45.254 97.372003,97.373 z" />
        <path
            d="m 239.79716,353.3715 45.256,45.256 142.627,-142.628 -142.628,-142.627 -45.254,45.254 97.372,97.373 z" />
    </symbol>
    <symbol id="arrow-start" viewBox="0 0 512 512">
        <path
            d="m 272.20314,158.6285 -45.256,-45.256 -142.627002,142.628 142.628002,142.627 45.254,-45.254 -97.372,-97.373 z" />
        <path
            d="m 427.67986,158.6285 -45.256,-45.256 -142.627,142.628 142.628,142.627 45.254,-45.254 -97.372,-97.373 z" />
    </symbol>
    <symbol id="icon-double-arrow" viewBox="0 0 512 512">
        <path
            d="m 272.20314,158.6285 -45.256,-45.256 -142.627002,142.628 142.628002,142.627 45.254,-45.254 -97.372,-97.373 z" />
        <path
            d="m 427.67986,158.6285 -45.256,-45.256 -142.627,142.628 142.628,142.627 45.254,-45.254 -97.372,-97.373 z" />
    </symbol>
    <symbol id="icon-arrow" viewBox="0 0 512 512">
        <path d="M177.372 353.372l45.256 45.256 142.627-142.628-142.628-142.627-45.254 45.254 97.372 97.373z" />
    </symbol>
    <symbol id="arrow-next" viewBox="0 0 512 512">
        <path d="M177.372 353.372l45.256 45.256 142.627-142.628-142.628-142.627-45.254 45.254 97.372 97.373z" />
    </symbol>
    <symbol id="arrow-prev" viewBox="0 0 512 512">
        <path d="M334.628 158.628l-45.256-45.256-142.627 142.628 142.628 142.627 45.254-45.254-97.372-97.373z" />
    </symbol>
    <symbol id="icon-play" viewBox="0 0 6.3499999 6.3500002" version="1.1" xmlns="http://www.w3.org/2000/svg">
        <path
            d="M 0.76386234,0.20398739 A 0.64536954,0.64536954 0 0 0 0.44069269,0.76329592 V 5.5864954 A 0.64536954,0.64536954 0 0 0 1.4089843,6.145804 L 5.5864533,3.7339 a 0.64536954,0.64536954 0 0 0 0,-1.1180085 L 1.4089843,0.20398739 a 0.64536954,0.64536954 0 0 0 -0.64512196,0 z"
            id="path846" />
    </symbol>
    <symbol id="icon-burger" viewBox="0 0 32 32">
        <path
            d="M4 14.667c-0.736 0-1.333 0.597-1.333 1.333v0c0 0.736 0.597 1.333 1.333 1.333v0h24c0.736 0 1.333-0.597 1.333-1.333v0c0-0.736-0.597-1.333-1.333-1.333v0z">
        </path>
        <path
            d="M4 6.667c-0.736 0-1.333 0.597-1.333 1.333v0c0 0.736 0.597 1.333 1.333 1.333v0h24c0.736 0 1.333-0.597 1.333-1.333v0c0-0.736-0.597-1.333-1.333-1.333v0z">
        </path>
        <path
            d="M4 22.667c-0.736 0-1.333 0.597-1.333 1.333v0c0 0.736 0.597 1.333 1.333 1.333v0h24c0.736 0 1.333-0.597 1.333-1.333v0c0-0.736-0.597-1.333-1.333-1.333v0z">
        </path>
    </symbol>
    <symbol id="icon-close" viewBox="0 0 32 32">
        <path
            d="m 8.457292,6.5721453 c -0.5204306,-0.5204306 -1.3647161,-0.5204306 -1.8851467,0 v 0 c -0.5204306,0.5204306 -0.5204306,1.3647161 0,1.8851467 v 0 L 23.542708,25.427855 c 0.520431,0.52043 1.364716,0.52043 1.885147,0 v 0 c 0.52043,-0.520431 0.52043,-1.364716 0,-1.885147 v 0 z"
            id="path2" />
        <path
            d="m 6.5721453,23.542708 c -0.5204306,0.52043 -0.5204306,1.364716 0,1.885147 v 0 c 0.5204306,0.52043 1.3647161,0.52043 1.8851467,0 v 0 L 25.427855,8.4572919 c 0.52043,-0.520431 0.52043,-1.3647161 0,-1.885147 v 0 c -0.520431,-0.5204301 -1.364716,-0.5204301 -1.885147,0 v 0 z"
            id="path829" />
    </symbol>
    <symbol id="icon-github" viewBox="0 0 32 32">
        <path
            d="M16 0C7.16 0 0 7.16 0 16C0 23.08 4.58 29.06 10.94 31.18C11.74 31.32 12.04 30.84 12.04 30.42C12.04 30.04 12.02 28.78 12.02 27.44C8 28.18 6.96 26.46 6.64 25.56C6.46 25.1 5.68 23.68 5 23.3C4.44 23 3.64 22.26 4.98 22.24C6.24 22.22 7.14 23.4 7.44 23.88C8.88 26.3 11.18 25.62 12.1 25.2C12.24 24.16 12.66 23.46 13.12 23.06C9.56 22.66 5.84 21.28 5.84 15.16C5.84 13.42 6.46 11.98 7.48 10.86C7.32 10.46 6.76 8.82 7.64 6.62C7.64 6.62 8.98 6.2 12.04 8.26C13.32 7.9 14.68 7.72 16.04 7.72C17.4 7.72 18.76 7.9 20.04 8.26C23.1 6.18 24.44 6.62 24.44 6.62C25.32 8.82 24.76 10.46 24.6 10.86C25.62 11.98 26.24 13.4 26.24 15.16C26.24 21.3 22.5 22.66 18.94 23.06C19.52 23.56 20.02 24.52 20.02 26.02C20.02 28.16 20 29.88 20 30.42C20 30.84 20.3 31.34 21.1 31.18C27.42 29.06 32 23.06 32 16C32 7.16 24.84 0 16 0V0Z" />
    </symbol>
    <symbol id="icon-moon" viewBox="0 0 32 32">
        <path
            d="M16.166 1.101c-8.21 0-14.899 6.689-14.899 14.899s6.689 14.899 14.899 14.899c7.142 0 13.13-5.062 14.568-11.783-1.022 0.462-2.208 0.791-3.451 0.927l-0.052 0.005c-0.003 0.008-0.007 0.015-0.009 0.023-0.021 0.002-0.041 0.006-0.061 0.008-0.198 0.020-0.398 0.035-0.599 0.045s-0.404 0.015-0.608 0.015c-0.204 0-0.406-0.005-0.608-0.015s-0.401-0.025-0.599-0.045c-0.198-0.020-0.395-0.045-0.59-0.075s-0.389-0.064-0.581-0.103c-0.192-0.039-0.382-0.083-0.571-0.131s-0.375-0.101-0.559-0.158c-0.185-0.057-0.367-0.119-0.548-0.185s-0.359-0.136-0.535-0.21c-0.176-0.074-0.35-0.153-0.522-0.235s-0.341-0.169-0.508-0.26c-0.167-0.090-0.331-0.185-0.493-0.283s-0.321-0.2-0.478-0.306c-0.157-0.106-0.31-0.215-0.461-0.328s-0.299-0.229-0.445-0.349c-0.145-0.12-0.288-0.243-0.427-0.37s-0.275-0.256-0.408-0.389c-0.133-0.133-0.263-0.269-0.389-0.408s-0.25-0.282-0.37-0.427c-0.12-0.145-0.236-0.294-0.349-0.445s-0.222-0.305-0.328-0.461c-0.106-0.157-0.208-0.316-0.306-0.478s-0.193-0.326-0.283-0.493c-0.090-0.167-0.177-0.336-0.26-0.508s-0.161-0.346-0.235-0.522c-0.074-0.176-0.144-0.355-0.21-0.535s-0.127-0.363-0.185-0.548c-0.057-0.185-0.11-0.371-0.158-0.559s-0.092-0.379-0.131-0.571c-0.039-0.192-0.073-0.386-0.103-0.581s-0.055-0.392-0.075-0.59c-0.020-0.198-0.035-0.398-0.045-0.599s-0.015-0.404-0.015-0.608c0-0.204 0.005-0.406 0.015-0.608s0.025-0.401 0.045-0.599c0.020-0.198 0.045-0.395 0.075-0.59s0.064-0.389 0.103-0.581c0.039-0.192 0.083-0.382 0.131-0.571s0.101-0.375 0.158-0.559c0.057-0.185 0.119-0.367 0.185-0.548 0.002-0.005 0.004-0.010 0.006-0.015 0.014-0.002 0.028-0.004 0.042-0.005 0.455-1.214 1.053-2.264 1.79-3.199l-0.019 0.025c-0.014-0-0.028-0.001-0.042-0.001 0-0 0-0 0-0-0.144-0.006-0.32-0.011-0.496-0.012l-0.006-0zM11.388 5.232c-0.010 0.045-0.022 0.090-0.031 0.135-0.050 0.242-0.094 0.486-0.131 0.733s-0.069 0.494-0.095 0.744c-0.025 0.25-0.045 0.502-0.058 0.755s-0.019 0.508-0.019 0.765c0 0.257 0.007 0.512 0.019 0.765s0.032 0.505 0.058 0.755c0.025 0.25 0.057 0.498 0.095 0.744s0.082 0.491 0.131 0.733c0.050 0.242 0.105 0.482 0.167 0.72s0.128 0.473 0.201 0.706c0.073 0.233 0.151 0.464 0.235 0.692s0.173 0.454 0.267 0.676c0.094 0.223 0.194 0.443 0.299 0.66s0.215 0.431 0.33 0.642c0.115 0.211 0.235 0.419 0.359 0.624s0.254 0.406 0.388 0.605c0.134 0.198 0.273 0.393 0.416 0.584s0.291 0.379 0.443 0.563c0.152 0.184 0.308 0.364 0.469 0.541s0.325 0.349 0.494 0.518c0.169 0.169 0.341 0.333 0.518 0.494s0.357 0.317 0.541 0.469c0.184 0.152 0.372 0.3 0.563 0.443s0.386 0.282 0.584 0.416c0.198 0.134 0.4 0.264 0.605 0.388s0.413 0.244 0.624 0.359c0.211 0.115 0.425 0.225 0.642 0.33s0.437 0.205 0.66 0.299c0.223 0.094 0.448 0.184 0.676 0.267s0.459 0.162 0.692 0.235c0.233 0.073 0.469 0.14 0.706 0.201s0.478 0.117 0.72 0.167c0.242 0.050 0.486 0.094 0.733 0.131s0.494 0.069 0.744 0.095c0.25 0.026 0.502 0.045 0.755 0.058 0.087 0.004 0.175 0.004 0.262 0.007-2.152 2.755-5.503 4.523-9.284 4.523-6.521 0-11.774-5.253-11.774-11.774 0-4.818 2.869-8.942 6.996-10.768z">
        </path>
        <path
            d="M20.928 3.999c-0.17 1.037-0.565 1.706-1.128 2.209s-1.324 0.839-2.235 1.065v1.213c0.911 0.226 1.672 0.562 2.235 1.065s0.957 1.172 1.128 2.209h1.234c0.17-1.037 0.565-1.706 1.128-2.209s1.324-0.839 2.235-1.065v-1.213c-0.911-0.226-1.672-0.562-2.235-1.065s-0.957-1.172-1.128-2.209zM21.544 6.002c0.249 0.44 0.556 0.82 0.911 1.137 0.331 0.296 0.698 0.539 1.091 0.74-0.392 0.201-0.759 0.443-1.091 0.74-0.355 0.317-0.662 0.697-0.911 1.137-0.249-0.44-0.556-0.82-0.911-1.137-0.331-0.296-0.698-0.539-1.091-0.74 0.392-0.201 0.759-0.444 1.091-0.74 0.355-0.317 0.662-0.697 0.911-1.137z">
        </path>
        <path
            d="M26.412 9.965c-0.095 0.575-0.314 0.947-0.626 1.226s-0.735 0.466-1.241 0.591v0.673c0.506 0.126 0.928 0.312 1.241 0.591s0.532 0.651 0.626 1.226h0.685c0.095-0.575 0.314-0.947 0.626-1.226s0.735-0.466 1.241-0.591v-0.673c-0.506-0.126-0.928-0.312-1.241-0.591s-0.532-0.651-0.626-1.226zM26.755 11.078c0.138 0.244 0.309 0.455 0.506 0.631 0.184 0.164 0.388 0.299 0.606 0.411-0.218 0.112-0.422 0.246-0.606 0.411-0.197 0.176-0.368 0.387-0.506 0.631-0.138-0.244-0.309-0.455-0.506-0.631-0.184-0.164-0.388-0.299-0.606-0.411 0.218-0.112 0.422-0.246 0.606-0.411 0.197-0.176 0.368-0.387 0.506-0.631z">
        </path>
    </symbol>
    <symbol id="icon-sun" viewBox="0 0 32 32">
        <path
            d="M16 26c1.105 0 2 0.895 2 2v2c0 1.105-0.895 2-2 2s-2-0.895-2-2v-2c0-1.105 0.895-2 2-2zM16 6c-1.105 0-2-0.895-2-2v-2c0-1.105 0.895-2 2-2s2 0.895 2 2v2c0 1.105-0.895 2-2 2zM30 14c1.105 0 2 0.895 2 2s-0.895 2-2 2h-2c-1.105 0-2-0.895-2-2s0.895-2 2-2h2zM6 16c0 1.105-0.895 2-2 2h-2c-1.105 0-2-0.895-2-2s0.895-2 2-2h2c1.105 0 2 0.895 2 2zM25.899 23.071l1.414 1.414c0.781 0.781 0.781 2.047 0 2.828s-2.047 0.781-2.828 0l-1.414-1.414c-0.781-0.781-0.781-2.047 0-2.828s2.047-0.781 2.828 0zM6.101 8.929l-1.414-1.414c-0.781-0.781-0.781-2.047 0-2.828s2.047-0.781 2.828 0l1.414 1.414c0.781 0.781 0.781 2.047 0 2.828s-2.047 0.781-2.828 0zM25.899 8.929c-0.781 0.781-2.047 0.781-2.828 0s-0.781-2.047 0-2.828l1.414-1.414c0.781-0.781 2.047-0.781 2.828 0s0.781 2.047 0 2.828l-1.414 1.414zM6.101 23.071c0.781-0.781 2.047-0.781 2.828 0s0.781 2.047 0 2.828l-1.414 1.414c-0.781 0.781-2.047 0.781-2.828 0s-0.781-2.047 0-2.828l1.414-1.414z">
        </path>
        <path
            d="M16 8c-4.418 0-8 3.582-8 8s3.582 8 8 8c4.418 0 8-3.582 8-8s-3.582-8-8-8zM16 21c-2.761 0-5-2.239-5-5s2.239-5 5-5 5 2.239 5 5-2.239 5-5 5z">
        </path>
    </symbol>
</svg>