<svg xmlns="http://www.w3.org/2000/svg" xmlns:xlink="http://www.w3.org/1999/xlink">
    <symbol id="arrow-end" viewBox="0 0 512 512">
        <path
            d="m 84.319837,353.3715 45.256003,45.256 142.627,-142.628 -142.628,-142.627 -45.254003,45.254 97.372003,97.373 z" />
        <path
            d="m 239.79716,353.3715 45.256,45.256 142.627,-142.628 -142.628,-142.627 -45.254,45.254 97.372,97.373 z" />
    </symbol>
    <symbol id="arrow-start" viewBox="0 0 512 512">
        <path
            d="m 272.20314,158.6285 -45.256,-45.256 -142.627002,142.628 142.628002,142.627 45.254,-45.254 -97.372,-97.373 z" />
        <path
            d="m 427.67986,158.6285 -45.256,-45.256 -142.627,142.628 142.628,142.627 45.254,-45.254 -97.372,-97.373 z" />
    </symbol>
    <symbol id="arrow-next" viewBox="0 0 512 512">
        <path d="M177.372 353.372l45.256 45.256 142.627-142.628-142.628-142.627-45.254 45.254 97.372 97.373z" />
    </symbol>
    <symbol id="arrow-prev" viewBox="0 0 512 512">
        <path d="M334.628 158.628l-45.256-45.256-142.627 142.628 142.628 142.627 45.254-45.254-97.372-97.373z" />
    </symbol>
    <symbol id="icon-play" viewBox="0 0 6.3499999 6.3500002" version="1.1" xmlns="http://www.w3.org/2000/svg">
        <path
            d="M 0.76386234,0.20398739 A 0.64536954,0.64536954 0 0 0 0.44069269,0.76329592 V 5.5864954 A 0.64536954,0.64536954 0 0 0 1.4089843,6.145804 L 5.5864533,3.7339 a 0.64536954,0.64536954 0 0 0 0,-1.1180085 L 1.4089843,0.20398739 a 0.64536954,0.64536954 0 0 0 -0.64512196,0 z"
            id="path846" />
    </symbol>
</svg>