<svg xmlns="http://www.w3.org/2000/svg" xmlns:xlink="http://www.w3.org/1999/xlink" viewBox="0 0 100 32" fill="#fff">
    <path
        d="M18.048 0.5c-0 0-0 0-0 0-0.634 0-1.188 0.343-1.487 0.853l-0.004 0.008-15.908 27.553c-0.145 0.247-0.231 0.544-0.231 0.862 0 0.951 0.771 1.722 1.722 1.722 0 0 0 0 0 0h31.817c0.951-0 1.722-0.771 1.722-1.722 0-0.317-0.086-0.614-0.235-0.87l0.004 0.008-15.907-27.553c-0.303-0.518-0.857-0.861-1.492-0.861-0 0-0 0-0 0v0zM18.048 5.667l12.926 22.388h-25.852z">
    </path>
    <path
        d="M35.782 0.502c-0.633 0-1.186 0.342-1.486 0.851l-0.004 0.008-6 10.399c-0.144 0.247-0.23 0.543-0.23 0.859s0.085 0.613 0.234 0.868l-0.004-0.008 9.9 17.157c0.303 0.52 0.858 0.864 1.493 0.864 0.001 0 0.001 0 0.002 0h19.664c0.022 0 0.056 0 0.117 0 8.506 0 15.494-6.999 15.494-15.504s-6.989-15.494-15.494-15.494h-13.78c-0.948 0.002-1.717 0.77-1.719 1.719v7.872c0 0 0 0.001 0 0.002 0 0.95 0.769 1.72 1.719 1.722h13.781c2.408 0 4.185 1.774 4.185 4.18s-1.779 4.185-4.185 4.185h-11.324l-10.872-18.82c-0.303-0.517-0.857-0.859-1.49-0.859h-0zM47.411 3.944h12.056c6.619 0 12.051 5.433 12.051 12.051s-5.433 12.057-12.051 12.057c-0.010 0-0.048 0-0.107 0-0.002 0-0.003 0-0.005 0s-0.004 0-0.005 0h-18.672l-8.909-15.433 4.012-6.951 9.875 17.096c0.302 0.519 0.856 0.863 1.49 0.864h12.321c4.211 0 7.627-3.422 7.627-7.633s-3.418-7.627-7.627-7.627h-12.056z">
    </path>
    <path
        d="M77.987 0.502c-0 0-0.001 0-0.002 0-0.95 0-1.72 0.769-1.722 1.719v27.556c0 0 0 0.001 0 0.002 0 0.951 0.771 1.722 1.722 1.722 0.001 0 0.001 0 0.002 0h11.263c5.686 0 10.333-4.646 10.333-10.333-0-3.451-1.95-6.406-4.749-8.309 0.608-1.199 1.307-2.387 1.307-3.748 0-4.735-3.879-8.609-8.614-8.609zM79.706 3.944h7.821c2.874 0 5.166 2.293 5.166 5.166-0 1.163-0.392 2.291-1.114 3.204-0.231 0.29-0.37 0.662-0.37 1.067 0 0.684 0.398 1.274 0.975 1.552l0.010 0.004c2.411 1.14 3.946 3.562 3.946 6.229 0 3.825-3.065 6.885-6.89 6.885h-9.545z">
    </path>
</svg>